<mxfile host="app.diagrams.net" agent="Mozilla/5.0 (Macintosh; Intel Mac OS X 10_15_7) AppleWebKit/537.36 (KHTML, like Gecko) Chrome/132.0.0.0 Safari/537.36" version="26.0.10">
  <diagram name="Page-1" id="CH4obqCmShr8P6OW-sn0">
    <mxGraphModel dx="853" dy="556" grid="1" gridSize="10" guides="1" tooltips="1" connect="1" arrows="1" fold="1" page="1" pageScale="1" pageWidth="850" pageHeight="1100" math="0" shadow="0">
      <root>
        <mxCell id="0" />
        <mxCell id="1" parent="0" />
        <mxCell id="gZXGNMnx3_eXt4WiYGjh-1" value="Frontend" style="rounded=0;whiteSpace=wrap;html=1;" parent="1" vertex="1">
          <mxGeometry x="40" y="280" width="120" height="60" as="geometry" />
        </mxCell>
        <mxCell id="gZXGNMnx3_eXt4WiYGjh-2" value="UserHandler" style="rounded=0;whiteSpace=wrap;html=1;" parent="1" vertex="1">
          <mxGeometry x="200" y="200" width="120" height="60" as="geometry" />
        </mxCell>
        <mxCell id="gZXGNMnx3_eXt4WiYGjh-3" value="DocumentHandler" style="rounded=0;whiteSpace=wrap;html=1;" parent="1" vertex="1">
          <mxGeometry x="200" y="280" width="120" height="60" as="geometry" />
        </mxCell>
        <mxCell id="gZXGNMnx3_eXt4WiYGjh-4" value="ChatHandler" style="rounded=0;whiteSpace=wrap;html=1;" parent="1" vertex="1">
          <mxGeometry x="200" y="360" width="120" height="60" as="geometry" />
        </mxCell>
        <mxCell id="gZXGNMnx3_eXt4WiYGjh-5" value="" style="endArrow=classic;html=1;rounded=0;entryX=0;entryY=0.5;entryDx=0;entryDy=0;" parent="1" target="gZXGNMnx3_eXt4WiYGjh-2" edge="1">
          <mxGeometry width="50" height="50" relative="1" as="geometry">
            <mxPoint x="160" y="310" as="sourcePoint" />
            <mxPoint x="210" y="260" as="targetPoint" />
          </mxGeometry>
        </mxCell>
        <mxCell id="gZXGNMnx3_eXt4WiYGjh-6" value="" style="endArrow=classic;html=1;rounded=0;exitX=1;exitY=0.5;exitDx=0;exitDy=0;entryX=0;entryY=0.5;entryDx=0;entryDy=0;" parent="1" source="gZXGNMnx3_eXt4WiYGjh-1" target="gZXGNMnx3_eXt4WiYGjh-3" edge="1">
          <mxGeometry width="50" height="50" relative="1" as="geometry">
            <mxPoint x="170" y="360" as="sourcePoint" />
            <mxPoint x="180" y="320" as="targetPoint" />
          </mxGeometry>
        </mxCell>
        <mxCell id="gZXGNMnx3_eXt4WiYGjh-7" value="" style="endArrow=classic;html=1;rounded=0;entryX=0;entryY=0.5;entryDx=0;entryDy=0;exitX=1;exitY=0.5;exitDx=0;exitDy=0;" parent="1" source="gZXGNMnx3_eXt4WiYGjh-1" target="gZXGNMnx3_eXt4WiYGjh-4" edge="1">
          <mxGeometry width="50" height="50" relative="1" as="geometry">
            <mxPoint x="130" y="420" as="sourcePoint" />
            <mxPoint x="180" y="370" as="targetPoint" />
          </mxGeometry>
        </mxCell>
        <mxCell id="gZXGNMnx3_eXt4WiYGjh-8" value="Google&lt;div&gt;Authentication&lt;/div&gt;&lt;div&gt;(external)&lt;/div&gt;" style="rounded=0;whiteSpace=wrap;html=1;" parent="1" vertex="1">
          <mxGeometry x="560" y="120" width="120" height="60" as="geometry" />
        </mxCell>
        <mxCell id="gZXGNMnx3_eXt4WiYGjh-10" value="" style="endArrow=none;dashed=1;html=1;rounded=0;" parent="1" edge="1">
          <mxGeometry width="50" height="50" relative="1" as="geometry">
            <mxPoint x="180" y="520" as="sourcePoint" />
            <mxPoint x="180" y="120" as="targetPoint" />
          </mxGeometry>
        </mxCell>
        <mxCell id="gZXGNMnx3_eXt4WiYGjh-13" value="DocumentDB" style="shape=cylinder3;whiteSpace=wrap;html=1;boundedLbl=1;backgroundOutline=1;size=15;" parent="1" vertex="1">
          <mxGeometry x="560" y="360" width="90" height="70" as="geometry" />
        </mxCell>
        <mxCell id="gZXGNMnx3_eXt4WiYGjh-14" value="UserDB" style="shape=cylinder3;whiteSpace=wrap;html=1;boundedLbl=1;backgroundOutline=1;size=15;" parent="1" vertex="1">
          <mxGeometry x="560" y="200" width="90" height="70" as="geometry" />
        </mxCell>
        <mxCell id="gZXGNMnx3_eXt4WiYGjh-15" value="ChatDB" style="shape=cylinder3;whiteSpace=wrap;html=1;boundedLbl=1;backgroundOutline=1;size=15;" parent="1" vertex="1">
          <mxGeometry x="560" y="440" width="90" height="70" as="geometry" />
        </mxCell>
        <mxCell id="gZXGNMnx3_eXt4WiYGjh-16" value="EmbeddingsDB" style="shape=cylinder3;whiteSpace=wrap;html=1;boundedLbl=1;backgroundOutline=1;size=15;" parent="1" vertex="1">
          <mxGeometry x="560" y="280" width="90" height="70" as="geometry" />
        </mxCell>
        <mxCell id="gZXGNMnx3_eXt4WiYGjh-17" value="DocumentParser" style="rounded=0;whiteSpace=wrap;html=1;" parent="1" vertex="1">
          <mxGeometry x="360" y="320" width="130" height="60" as="geometry" />
        </mxCell>
        <mxCell id="gZXGNMnx3_eXt4WiYGjh-18" value="RAGManager" style="rounded=0;whiteSpace=wrap;html=1;" parent="1" vertex="1">
          <mxGeometry x="360" y="400" width="130" height="60" as="geometry" />
        </mxCell>
        <mxCell id="gZXGNMnx3_eXt4WiYGjh-19" value="DocumentSummarizer" style="rounded=0;whiteSpace=wrap;html=1;" parent="1" vertex="1">
          <mxGeometry x="360" y="240" width="130" height="60" as="geometry" />
        </mxCell>
        <mxCell id="gZXGNMnx3_eXt4WiYGjh-21" value="" style="endArrow=classic;html=1;rounded=0;entryX=0;entryY=0.5;entryDx=0;entryDy=0;exitX=1;exitY=0.5;exitDx=0;exitDy=0;" parent="1" source="gZXGNMnx3_eXt4WiYGjh-2" target="gZXGNMnx3_eXt4WiYGjh-8" edge="1">
          <mxGeometry width="50" height="50" relative="1" as="geometry">
            <mxPoint x="380" y="200" as="sourcePoint" />
            <mxPoint x="430" y="150" as="targetPoint" />
          </mxGeometry>
        </mxCell>
        <mxCell id="gZXGNMnx3_eXt4WiYGjh-22" value="" style="endArrow=classic;html=1;rounded=0;entryX=0;entryY=0.5;entryDx=0;entryDy=0;entryPerimeter=0;exitX=1;exitY=0.5;exitDx=0;exitDy=0;" parent="1" source="gZXGNMnx3_eXt4WiYGjh-2" target="gZXGNMnx3_eXt4WiYGjh-14" edge="1">
          <mxGeometry width="50" height="50" relative="1" as="geometry">
            <mxPoint x="370" y="170" as="sourcePoint" />
            <mxPoint x="420" y="120" as="targetPoint" />
          </mxGeometry>
        </mxCell>
        <mxCell id="gZXGNMnx3_eXt4WiYGjh-23" value="" style="endArrow=classic;html=1;rounded=0;entryX=0;entryY=0.5;entryDx=0;entryDy=0;exitX=1;exitY=0.5;exitDx=0;exitDy=0;" parent="1" source="gZXGNMnx3_eXt4WiYGjh-3" target="gZXGNMnx3_eXt4WiYGjh-19" edge="1">
          <mxGeometry width="50" height="50" relative="1" as="geometry">
            <mxPoint x="300" y="330" as="sourcePoint" />
            <mxPoint x="350" y="280" as="targetPoint" />
          </mxGeometry>
        </mxCell>
        <mxCell id="gZXGNMnx3_eXt4WiYGjh-24" value="" style="endArrow=classic;html=1;rounded=0;entryX=0;entryY=0.5;entryDx=0;entryDy=0;exitX=1;exitY=0.5;exitDx=0;exitDy=0;" parent="1" source="gZXGNMnx3_eXt4WiYGjh-3" target="gZXGNMnx3_eXt4WiYGjh-17" edge="1">
          <mxGeometry width="50" height="50" relative="1" as="geometry">
            <mxPoint x="320" y="420" as="sourcePoint" />
            <mxPoint x="370" y="370" as="targetPoint" />
          </mxGeometry>
        </mxCell>
        <mxCell id="gZXGNMnx3_eXt4WiYGjh-25" value="" style="endArrow=classic;html=1;rounded=0;entryX=0;entryY=0.5;entryDx=0;entryDy=0;exitX=1;exitY=0.5;exitDx=0;exitDy=0;" parent="1" source="gZXGNMnx3_eXt4WiYGjh-4" target="gZXGNMnx3_eXt4WiYGjh-18" edge="1">
          <mxGeometry width="50" height="50" relative="1" as="geometry">
            <mxPoint x="240" y="520" as="sourcePoint" />
            <mxPoint x="290" y="470" as="targetPoint" />
          </mxGeometry>
        </mxCell>
        <mxCell id="gZXGNMnx3_eXt4WiYGjh-26" value="" style="endArrow=classic;html=1;rounded=0;entryX=0;entryY=0.5;entryDx=0;entryDy=0;entryPerimeter=0;exitX=1;exitY=0.5;exitDx=0;exitDy=0;" parent="1" source="gZXGNMnx3_eXt4WiYGjh-18" target="gZXGNMnx3_eXt4WiYGjh-15" edge="1">
          <mxGeometry width="50" height="50" relative="1" as="geometry">
            <mxPoint x="390" y="560" as="sourcePoint" />
            <mxPoint x="440" y="510" as="targetPoint" />
          </mxGeometry>
        </mxCell>
        <mxCell id="gZXGNMnx3_eXt4WiYGjh-27" value="" style="endArrow=classic;html=1;rounded=0;entryX=0;entryY=0.5;entryDx=0;entryDy=0;entryPerimeter=0;exitX=1;exitY=0.5;exitDx=0;exitDy=0;" parent="1" source="gZXGNMnx3_eXt4WiYGjh-18" target="gZXGNMnx3_eXt4WiYGjh-13" edge="1">
          <mxGeometry width="50" height="50" relative="1" as="geometry">
            <mxPoint x="420" y="530" as="sourcePoint" />
            <mxPoint x="470" y="480" as="targetPoint" />
          </mxGeometry>
        </mxCell>
        <mxCell id="gZXGNMnx3_eXt4WiYGjh-28" value="" style="endArrow=classic;html=1;rounded=0;entryX=0;entryY=0.5;entryDx=0;entryDy=0;entryPerimeter=0;exitX=1;exitY=0.5;exitDx=0;exitDy=0;" parent="1" source="gZXGNMnx3_eXt4WiYGjh-17" target="gZXGNMnx3_eXt4WiYGjh-16" edge="1">
          <mxGeometry width="50" height="50" relative="1" as="geometry">
            <mxPoint x="500" y="370" as="sourcePoint" />
            <mxPoint x="550" y="320" as="targetPoint" />
          </mxGeometry>
        </mxCell>
        <mxCell id="gZXGNMnx3_eXt4WiYGjh-29" value="" style="endArrow=classic;html=1;rounded=0;entryX=0;entryY=0.5;entryDx=0;entryDy=0;entryPerimeter=0;exitX=1;exitY=0.5;exitDx=0;exitDy=0;" parent="1" source="gZXGNMnx3_eXt4WiYGjh-17" target="gZXGNMnx3_eXt4WiYGjh-13" edge="1">
          <mxGeometry width="50" height="50" relative="1" as="geometry">
            <mxPoint x="480" y="350" as="sourcePoint" />
            <mxPoint x="750" y="240" as="targetPoint" />
          </mxGeometry>
        </mxCell>
        <mxCell id="gZXGNMnx3_eXt4WiYGjh-30" value="S3" style="shape=cylinder3;whiteSpace=wrap;html=1;boundedLbl=1;backgroundOutline=1;size=15;" parent="1" vertex="1">
          <mxGeometry x="680" y="355" width="60" height="80" as="geometry" />
        </mxCell>
        <mxCell id="gZXGNMnx3_eXt4WiYGjh-32" value="" style="endArrow=classic;html=1;rounded=0;entryX=0;entryY=0.5;entryDx=0;entryDy=0;entryPerimeter=0;exitX=1;exitY=0.5;exitDx=0;exitDy=0;exitPerimeter=0;" parent="1" source="gZXGNMnx3_eXt4WiYGjh-13" target="gZXGNMnx3_eXt4WiYGjh-30" edge="1">
          <mxGeometry width="50" height="50" relative="1" as="geometry">
            <mxPoint x="670" y="460" as="sourcePoint" />
            <mxPoint x="720" y="410" as="targetPoint" />
          </mxGeometry>
        </mxCell>
      </root>
    </mxGraphModel>
  </diagram>
</mxfile>
